<svg class="block max-h-full h-auto max-w-full w-auto fill-none" viewBox="0 0 175 55" xmlns="http://www.w3.org/2000/svg">
 <path d="m39.677 20.03-4.7205-8.6765h6.5882l4.6029 8.4118 0.1471 0.2647-0.1471 0.2647-4.6029 8.4118h-6.5882l4.7205-8.6765zm11.176 0-4.7206-8.6765h6.5883l4.6029 8.4118 0.1471 0.2647-0.1471 0.2647-4.6029 8.4118h-6.5883l4.7206-8.6765z" fill="#000"/>
 <path class="fill-current" d="m0 0.014707h19.324v6h-12.882v5.3382h12.882v6h-12.882v11.338h-6.4412v-28.691 0.014707z" fill="#012aff"/>
 <path class="fill-current" d="m11.941 11.353h19.324v6h-12.882v5.3382h12.882v6h-12.882v11.338h-6.4412v-28.691 0.0147z" fill="#012aff"/>
 <path class="fill-current" d="m65.412 20.779c0.0735 1.0294 0.5 1.8676 1.25 2.5 0.7794 0.6176 1.7941 0.9264 3.0588 0.9264s1.8971-0.2206 2.5588-0.647c0.6765-0.4559 1.0147-1.0736 1.0147-1.8677s-0.1911-0.9853-0.5588-1.3088c-0.3529-0.3382-0.8676-0.5882-1.5441-0.7794-0.6471-0.1912-1.6765-0.4412-3.0588-0.7206-1.3677-0.2647-2.5147-0.5882-3.4559-0.9853-0.9265-0.4118-1.6912-1.0147-2.2941-1.8088-0.5735-0.8088-0.8677-1.8824-0.8677-3.2059s0.3236-2.2941 0.9853-3.2353c0.6765-0.95588 1.603-1.6912 2.7647-2.2353 1.1912-0.55882 2.5294-0.83823 4.0147-0.83823s2.8971 0.29411 4.103 0.86764c1.2353 0.55883 2.1912 1.3235 2.8823 2.3235 0.7206 0.98534 1.0736 2.1176 1.103 3.3529h-4.3677c-0.1029-0.8971-0.4706-1.6029-1.1323-2.1471-0.6471-0.5588-1.5147-0.8382-2.5883-0.8382-1.0735 0-1.7794 0.2059-2.3823 0.6177-0.5882 0.4117-0.8971 1.0147-0.8971 1.7794s0.1765 0.9853 0.5294 1.3088c0.353 0.2941 0.8677 0.5441 1.5147 0.75 0.6471 0.1765 1.6618 0.397 3.0295 0.647 1.3823 0.2648 2.5588 0.5883 3.5147 0.9853 0.9558 0.3824 1.7205 0.9559 2.2941 1.75 0.5882 0.7795 0.897 1.8089 0.897 3.1177s-0.3529 2.4118-1.0441 3.4265c-0.6912 0.9853-1.6617 1.7794-2.9117 2.3529-1.2353 0.5735-2.6177 0.8676-4.1618 0.8676s-3.1471-0.2941-4.4559-0.897c-1.2941-0.6177-2.2941-1.4559-3.0294-2.5294-0.7353-1.0736-1.1029-2.2647-1.1324-3.603l4.3677 0.0589v0.0147z" fill="#012aff"/>
 <path class="fill-current" d="m79.53 19.941c0-1.5883 0.3236-2.9706 0.9559-4.1324 0.6471-1.1912 1.5589-2.1029 2.7059-2.7353 1.1765-0.647 2.5147-0.9853 4.0441-0.9853s2.8971 0.3089 4.0736 0.9265c1.1911 0.5882 2.1176 1.4412 2.7647 2.5588 0.6764 1.0883 1.0147 2.3824 1.0441 3.8677 0 0.5294-0.0441 1.0147-0.1177 1.4264h-11.088v0.1177c0.1029 1.1029 0.4559 1.9853 1.0735 2.6176 0.6177 0.6324 1.4559 0.9559 2.5294 0.9559 1.0736 0 1.5589-0.1765 2.1177-0.5294 0.5735-0.3823 0.9559-0.9265 1.1323-1.6323h4.1324c-0.1618 1.0147-0.5441 1.9264-1.1618 2.7352-0.6176 0.8089-1.4264 1.4559-2.4412 1.9265-1.0147 0.4559-2.1764 0.6912-3.4853 0.6912-1.3088 0-3.1764-0.3235-4.4264-0.9559-1.2353-0.6323-2.1765-1.5294-2.853-2.7059-0.647-1.1911-0.9852-2.5735-0.9852-4.1323l-0.0148-0.0147zm11.397-1.8088c-0.1324-0.9265-0.5294-1.6471-1.1618-2.1471-0.6176-0.5147-1.397-0.7794-2.3529-0.7794s-1.6912 0.2647-2.3235 0.8088c-0.6177 0.5147-0.9853 1.2206-1.103 2.1177h6.9412z" fill="#012aff"/>
 <path class="fill-current" d="m112.54 12.279v14.838c0 2-0.662 3.6029-1.985 4.7941-1.324 1.1912-3.397 1.7794-6.191 1.7794-2.795 0-3.912-0.4706-5.2357-1.4265-1.3236-0.9559-2.0442-2.2941-2.1471-4.0441h4.2208c0.191 0.7353 0.588 1.2941 1.162 1.6912 0.588 0.397 1.367 0.5882 2.323 0.5882s2.118-0.2941 2.765-0.897c0.647-0.5883 0.985-1.4706 0.985-2.6471v-1.6029c-1.103 1.4117-2.691 2.1176-4.735 2.1176s-2.559-0.3235-3.633-0.9559c-1.0731-0.6323-1.9113-1.5294-2.529-2.6765-0.5882-1.1764-0.897-2.5294-0.897-4.0735s0.2941-2.8676 0.897-4.0441c0.6177-1.1765 1.4559-2.0735 2.529-2.7059 1.089-0.6323 2.309-0.9559 3.662-0.9559 2 0 3.588 0.7795 4.765 2.3236l0.353-2.1177h3.691v0.0147zm-7.853 11.824c1.132 0 2.029-0.3971 2.706-1.1912 0.676-0.7941 1.015-1.8235 1.015-3.0883 0-1.2647-0.339-2.3382-1.015-3.147-0.677-0.8088-1.574-1.2206-2.706-1.2206s-2.044 0.4118-2.735 1.2206c-0.677 0.7941-1.015 1.8382-1.015 3.1176s0.338 2.3236 1.015 3.1177c0.691 0.7941 1.603 1.1912 2.735 1.1912z" fill="#012aff"/>
 <path class="fill-current" d="m130 12.279v15.279h-3.721l-0.382-1.8382c-0.529 0.6323-1.162 1.1323-1.868 1.4853-0.72 0.3529-1.588 0.5294-2.617 0.5294-1.78 0-3.235-0.5441-4.368-1.6324-1.132-1.1029-1.691-2.9559-1.691-5.5294v-8.2941h4.191v7.7941c0 1.3824 0.235 2.4412 0.721 3.1471 0.5 0.6911 1.25 1.0441 2.264 1.0441 1.015 0 1.868-0.3824 2.442-1.1618 0.573-0.7941 0.867-1.897 0.867-3.2941v-7.5294h4.191-0.029z" fill="#012aff"/>
 <path class="fill-current" d="m142.22 12.279v3.8088h-1.661c-1.191 0-2.059 0.353-2.618 1.0736-0.559 0.7205-0.838 1.6911-0.838 2.9117v7.5h-4.191v-15.279h3.808l0.383 2.2941c0.456-0.75 1.015-1.3235 1.691-1.6912 0.676-0.397 1.574-0.5882 2.706-0.5882h0.72v-0.0294z" fill="#012aff"/>
 <path class="fill-current" d="m151.07 27.735c-1.602 0-3.029-0.3235-4.25-0.9559-1.205-0.647-2.147-1.5735-2.823-2.7647-0.647-1.1912-0.985-2.5588-0.985-4.1029 0-1.5442 0.323-2.9118 0.985-4.103 0.676-1.1912 1.618-2.1029 2.823-2.7353 1.236-0.647 2.648-0.9853 4.25-0.9853 1.603 0 3.015 0.3236 4.221 0.9853 1.235 0.6324 2.177 1.5441 2.824 2.7353 0.676 1.1912 1.014 2.5588 1.014 4.103 0 1.5441-0.338 2.9411-1.014 4.1323-0.647 1.1765-1.603 2.0883-2.824 2.7353-1.206 0.6324-2.618 0.9559-4.221 0.9559zm0-3.4118c1.177 0 2.089-0.4117 2.765-1.2206 0.691-0.8088 1.044-1.8676 1.044-3.1764 0-1.3089-0.353-2.3677-1.044-3.1765-0.676-0.8088-1.603-1.2206-2.765-1.2206-1.161 0-2.073 0.4118-2.764 1.2206-0.677 0.8088-1.015 1.8676-1.015 3.1765 0 1.3088 0.338 2.3676 1.015 3.1764 0.691 0.8089 1.617 1.2206 2.764 1.2206z" fill="#012aff"/>
 <path class="fill-current" d="m164.74 22.47c0.059 0.6764 0.383 1.2206 0.986 1.6323 0.588 0.4118 1.352 0.6177 2.294 0.6177 0.941 0 1.603-0.1324 2.117-0.4118 0.515-0.2941 0.78-0.7206 0.78-1.25s-0.118-0.6912-0.353-0.8971c-0.236-0.2058-0.574-0.3382-1.015-0.4117-0.441-0.103-1.147-0.2059-2.147-0.3235-1.353-0.1765-2.471-0.4118-3.353-0.6912-0.897-0.2794-1.603-0.7206-2.147-1.3088-0.529-0.5883-0.809-1.3824-0.809-2.3824s0.265-1.8676 0.809-2.6176c0.559-0.7795 1.324-1.3677 2.324-1.7795 0.985-0.4117 2.132-0.6176 3.426-0.6176 2.088 0.0147 3.75 0.4706 5.029 1.3382 1.295 0.8677 1.986 2.0883 2.089 3.6324h-3.986c-0.058-0.5735-0.367-1.0441-0.926-1.3971-0.53-0.3823-1.235-0.5588-2.088-0.5588s-1.442 0.1471-1.927 0.4412c-0.47 0.2941-0.72 0.6912-0.72 1.1912s0.132 0.6176 0.382 0.8088c0.265 0.1764 0.588 0.3088 1.015 0.3823 0.411 0.0736 1.103 0.1618 2.088 0.2647 2.059 0.2353 3.632 0.6912 4.735 1.3383 1.103 0.6323 1.662 1.7353 1.662 3.2941s-0.294 1.8676-0.897 2.6176c-0.574 0.75-1.382 1.3383-2.441 1.75-1.03 0.3971-2.236 0.5883-3.603 0.5883-2.118 0-3.853-0.4706-5.177-1.3971-1.323-0.9559-2.029-2.2353-2.117-3.8676h3.985l-0.015 0.0147z" fill="#012aff"/>
</svg>