<svg id="b" enable-background="new 0 0 249.999 50.908" version="1.1" viewBox="50 260 600 180" xml:space="preserve" xmlns="http://www.w3.org/2000/svg" xmlns:xlink="http://www.w3.org/1999/xlink"><defs id="c"><radialGradient id="a" cx="1128.5" cy="600" r="260.16" gradientTransform="matrix(1.4217 -.031265 .015827 .71968 -583.86 378.48)" gradientUnits="userSpaceOnUse"><stop id="d" stop-color="#009ee2" offset="0"/><stop id="e" stop-color="#009ee2" stop-opacity="0" offset="1"/></radialGradient></defs><g id="f" transform="matrix(5.2303 0 0 5.2303 87.013 266.21)"><path id="g" d="m98.99 0h-28.901c-0.864 0-1.572 0.704-1.572 1.571v28.902c0 0.864 0.707 1.568 1.572 1.568h28.901c0.863 0 1.571-0.704 1.571-1.568v-28.902c1e-3 -0.867-0.707-1.571-1.571-1.571z" fill="#009ee2"/><path id="h" d="m98.416 19.099c-1.159-1.47-3.995-1.778-5.53-1.778-6.398 0-12.52 1.189-18.151 3.364 0.049-1.669 1e-3 -3.34-0.187-4.989 4.287-1.251 11.851-2.256 16.83-1.82 4.651 0.408 6.403 3 7.038 5.223z" fill="#fff"/><path id="i" d="m96.334 14.855c-1.297-1.218-2.286-2.096-6.219-2.665-3.932-0.566-12.251 0.29-15.933 1.217-0.264-1.455-0.619-2.892-1.063-4.3 2.522-0.443 5.118-0.676 7.77-0.676 2.575 0 5.104 0.22 7.559 0.639 5.201 0.891 6.856 3.804 7.886 5.785z" fill="#fff"/><path id="j" d="m70.3 2.733c13.392-0.348 20.915 5.515 22.413 7.13-1.304-1.087-3.82-2.013-5.987-2.431-2.663-0.511-5.412-0.777-8.235-0.777-2.063 0-4.096 0.144-6.082 0.424-0.506-1.321-1.444-3.095-2.109-4.346z" fill="#fff"/><path id="k" d="m96.334 27.586c2.154-4.451 1.649-5.229-2.581-4.714-6.575 0.803-14.863 3.618-21.124 6.999 1.142-2.21 1.699-4.435 1.919-6.442 6.045-2.654 12.696-4.182 19.688-4.32 7.32-0.145 4.573 5.455 2.098 8.477z" fill="#fff"/><path id="l" d="m41.881 18.749c0.906-0.132 2.254-0.232 3.752-0.232 1.849 0 3.141 0.25 4.03 0.875 0.738 0.53 1.146 1.644 1.146 2.669 0 1.419-0.916 2.431-1.987 2.778v0.049c0.532 0.742 3.714 4.83 3.714 4.83h-3.111l-3.343-4.369h-1.409v4.369h-2.792zm2.792 4.786h1.107c1.406 0 2.237-0.626 2.237-1.603 0-1.022-0.777-1.533-2.07-1.55-0.683 0-1.073 0.049-1.275 0.08v3.073zm-44.1 3.603c0.76 0.347 1.924 0.69 3.126 0.69 1.295 0 1.979-0.478 1.979-1.202 0-0.695-0.59-1.093-2.092-1.571-2.07-0.644-3.42-1.665-3.42-3.286 0-1.901 1.774-3.354 4.714-3.354 1.406 0 2.443 0.267 3.185 0.564l-0.629 2.03c-0.499-0.214-1.387-0.529-2.61-0.529-1.219 0-1.813 0.497-1.813 1.073 0 0.714 0.705 1.025 2.314 1.569 2.204 0.73 3.239 1.75 3.239 3.321 0 1.864-1.609 3.469-5.031 3.469-1.426 0-2.831-0.346-3.534-0.694zm16.393-2.116h-4.59v2.644h5.125v2.063h-7.956v-11.131h7.697v2.064h-4.864v2.313h4.589v2.047zm11.951 4.196c-0.87 0.266-2.516 0.628-4.164 0.628-2.275 0-3.921-0.514-5.07-1.503-1.148-0.958-1.777-2.411-1.758-4.042 0.02-3.702 3.034-5.819 7.124-5.819 1.609 0 2.848 0.28 3.46 0.548l-0.591 2.013c-0.685-0.263-1.536-0.48-2.906-0.48-2.347 0-4.124 1.19-4.124 3.602 0 2.295 1.609 3.651 3.921 3.651 0.647 0 1.166-0.066 1.388-0.165v-2.329l8e-3 -1.964h2.711v5.86zm4.088-10.619v6.408c0 1.914 0.814 2.889 2.256 2.889 1.481 0 2.295-0.921 2.295-2.889v-6.408h2.812v6.243c0 3.437-1.943 5.07-5.199 5.07-3.146 0-4.997-1.553-4.997-5.103v-6.208h2.832v-2e-3zm30.537 5.452c0 3.646-2.479 5.861-6.124 5.861-3.701 0-5.864-2.494-5.864-5.665 0-3.335 2.387-5.832 6.068-5.832 3.831 1e-3 5.92 2.562 5.92 5.636zm-9.009 0.145c0 2.183 1.147 3.719 3.033 3.719 1.906 0 2.998-1.619 2.998-3.781 0-2.001-1.072-3.722-3.017-3.722-1.904 2e-3 -3.014 1.622-3.014 3.784z" fill="#1d1d1b"/><path id="m" d="m9.853 3.149c-1-0.717-2.493-1.065-4.565-1.065-1.794 0-3.311 0.088-4.521 0.268v13.138h3.161v-4.862l0.136 0.02c0.304 0.039 0.704 0.06 1.152 0.06 2.088 0 3.769-0.484 4.855-1.4 0.872-0.737 1.352-1.849 1.352-3.122 3e-3 -1.227-0.569-2.334-1.57-3.037zm-4.656 5.451c-0.542 0-0.891-0.027-1.173-0.085l-0.096-0.022v-4.19l0.089-0.026c0.158-0.035 0.602-0.122 1.452-0.122 1.753 0 2.799 0.789 2.799 2.111 0 1.438-1.177 2.334-3.071 2.334zm14.095-6.635c-4.276 0-7.266 2.867-7.266 6.975 0 4.049 2.823 6.773 7.018 6.773 4.455 0 7.332-2.753 7.332-7.016 1e-3 -3.352-2.189-6.732-7.084-6.732zm-0.067 11.556c-2.318 0-3.814-1.823-3.814-4.643 0-2.825 1.522-4.723 3.792-4.723 2.231 0 3.79 1.91 3.79 4.643 0 2.87-1.478 4.723-3.768 4.723zm16.756-3.727-0.023-0.031v-0.187l0.083-0.029c1.079-0.346 2.338-1.413 2.338-3.268 0-1.311-0.541-2.576-1.344-3.152-1.021-0.722-2.514-1.043-4.84-1.043-1.625 0-3.238 0.099-4.451 0.267v13.138h3.16v-5.326h1.899s4 5.23 4.073 5.326h3.481c-0.718-0.924-3.804-4.901-4.376-5.695zm-3.605-1.601h-1.471v-3.959l0.099-0.017c0.42-0.068 0.95-0.102 1.579-0.102 1.701 0.022 2.639 0.736 2.639 2.01-1e-3 1.278-1.088 2.068-2.846 2.068zm17.872-6.008v2.331h-4.144v10.975h-3.205v-10.975h-4.076v-2.331h11.425zm6.853-0.22c-4.275 0-7.265 2.867-7.265 6.975 0 4.049 2.819 6.773 7.02 6.773 4.453 0 7.331-2.753 7.331-7.016-2e-3 -3.352-2.19-6.732-7.086-6.732zm-0.067 11.556c-2.316 0-3.811-1.823-3.811-4.643 0-2.825 1.521-4.723 3.791-4.723 2.233 0 3.792 1.91 3.792 4.643-2e-3 2.87-1.48 4.723-3.772 4.723z" fill="#1d1d1b"/></g><path id="n" d="m1123.8 39.053h-203.86c-6.0945 0-11.089 4.9659-11.089 11.082v203.87c0 6.0945 4.9871 11.06 11.089 11.06h203.86c6.0874 0 11.082-4.9659 11.082-11.06v-203.87c0.01-6.1157-4.987-11.082-11.082-11.082z" fill="#009ee2" stroke-width="7.0538"/><path id="o" d="m1119.8 173.77c-8.1753-10.369-28.18-12.542-39.008-12.542-45.13 0-88.314 8.387-128.03 23.729 0.3457-11.773 0.01-23.56-1.319-35.191 30.24-8.8243 83.595-15.913 118.72-12.838 32.807 2.8779 45.166 21.161 49.645 36.842z" fill="#fff" stroke-width="7.0538"/><path id="p" d="m1105.1 143.84c-9.1488-8.5915-16.125-14.785-43.868-18.798-27.736-3.9924-86.416 2.0456-112.39 8.5845-1.8622-10.263-4.3663-20.4-7.4982-30.331 17.79-3.1248 36.101-4.7684 54.808-4.7684 18.164 0 36.003 1.5519 53.32 4.5074 36.687 6.285 48.361 26.833 55.626 40.806z" fill="#fff" stroke-width="7.0538"/><path id="q" d="m921.44 58.331c94.464-2.4547 147.53 38.902 158.1 50.294-9.1981-7.6675-26.946-14.199-42.231-17.148-18.784-3.6045-38.175-5.4808-58.088-5.4808-14.552 0-28.892 1.0157-42.901 2.9908-3.5692-9.3181-10.186-21.832-14.876-30.656z" fill="#fff" stroke-width="7.0538"/><path id="r" d="m1105.1 233.64c15.194-31.396 11.632-36.884-18.206-33.252-46.379 5.6642-104.84 25.521-149 49.37 8.0555-15.589 11.984-31.284 13.536-45.441 42.64-18.721 89.555-29.499 138.88-30.472 51.634-1.0228 32.257 38.478 14.799 59.795z" fill="#fff" stroke-width="7.0538"/></svg>